<?xml version="1.0" standalone="yes"?>

<svg version="1.1" viewBox="0.0 0.0 118.46719160104986 119.61679790026247" fill="none" stroke="none" stroke-linecap="square" stroke-miterlimit="10" xmlns="http://www.w3.org/2000/svg" xmlns:xlink="http://www.w3.org/1999/xlink"><clipPath id="p.0"><path d="m0 0l118.46719 0l0 119.6168l-118.46719 0l0 -119.6168z" clip-rule="nonzero"></path></clipPath><g clip-path="url(#p.0)"><path fill="#000000" fill-opacity="0.0" d="m0 0l118.46719 0l0 119.6168l-118.46719 0z" fill-rule="nonzero"></path><path fill="#b6d7a8" d="m0 0l120.0 0l0 120.0l-120.0 0z" fill-rule="nonzero"></path><path fill="#6aa84f" d="m16.0 40.0l8.0 0l0 8.0l-8.0 0z" fill-rule="nonzero"></path><path fill="#6aa84f" d="m24.0 32.0l8.0 0l0 8.0l-8.0 0z" fill-rule="nonzero"></path><path fill="#6aa84f" d="m8.0 48.0l8.0 0l0 8.0l-8.0 0z" fill-rule="nonzero"></path><path fill="#93c47d" d="m16.0 32.0l8.0 0l0 8.0l-8.0 0z" fill-rule="nonzero"></path><path fill="#93c47d" d="m8.0 40.0l8.0 0l0 8.0l-8.0 0z" fill-rule="nonzero"></path><path fill="#6aa84f" d="m48.0 40.0l8.0 0l0 8.0l-8.0 0z" fill-rule="nonzero"></path><path fill="#6aa84f" d="m56.0 32.0l8.0 0l0 8.0l-8.0 0z" fill-rule="nonzero"></path><path fill="#6aa84f" d="m40.0 48.0l8.0 0l0 8.0l-8.0 0z" fill-rule="nonzero"></path><path fill="#93c47d" d="m48.0 32.0l8.0 0l0 8.0l-8.0 0z" fill-rule="nonzero"></path><path fill="#93c47d" d="m40.0 40.0l8.0 0l0 8.0l-8.0 0z" fill-rule="nonzero"></path><path fill="#6aa84f" d="m80.0 40.0l8.0 0l0 8.0l-8.0 0z" fill-rule="nonzero"></path><path fill="#6aa84f" d="m88.0 32.0l8.0 0l0 8.0l-8.0 0z" fill-rule="nonzero"></path><path fill="#6aa84f" d="m72.0 48.0l8.0 0l0 8.0l-8.0 0z" fill-rule="nonzero"></path><path fill="#93c47d" d="m80.0 32.0l8.0 0l0 8.0l-8.0 0z" fill-rule="nonzero"></path><path fill="#93c47d" d="m72.0 40.0l8.0 0l0 8.0l-8.0 0z" fill-rule="nonzero"></path><path fill="#6aa84f" d="m24.0 72.0l8.0 0l0 8.0l-8.0 0z" fill-rule="nonzero"></path><path fill="#6aa84f" d="m32.0 64.0l8.0 0l0 8.0l-8.0 0z" fill-rule="nonzero"></path><path fill="#6aa84f" d="m16.0 80.0l8.0 0l0 8.0l-8.0 0z" fill-rule="nonzero"></path><path fill="#93c47d" d="m24.0 64.0l8.0 0l0 8.0l-8.0 0z" fill-rule="nonzero"></path><path fill="#93c47d" d="m16.0 72.0l8.0 0l0 8.0l-8.0 0z" fill-rule="nonzero"></path><path fill="#6aa84f" d="m56.0 72.0l8.0 0l0 8.0l-8.0 0z" fill-rule="nonzero"></path><path fill="#6aa84f" d="m64.0 64.0l8.0 0l0 8.0l-8.0 0z" fill-rule="nonzero"></path><path fill="#6aa84f" d="m48.0 80.0l8.0 0l0 8.0l-8.0 0z" fill-rule="nonzero"></path><path fill="#93c47d" d="m56.0 64.0l8.0 0l0 8.0l-8.0 0z" fill-rule="nonzero"></path><path fill="#93c47d" d="m48.0 72.0l8.0 0l0 8.0l-8.0 0z" fill-rule="nonzero"></path><path fill="#6aa84f" d="m88.0 72.0l8.0 0l0 8.0l-8.0 0z" fill-rule="nonzero"></path><path fill="#6aa84f" d="m96.0 64.0l8.0 0l0 8.0l-8.0 0z" fill-rule="nonzero"></path><path fill="#6aa84f" d="m80.0 80.0l8.0 0l0 8.0l-8.0 0z" fill-rule="nonzero"></path><path fill="#93c47d" d="m88.0 64.0l8.0 0l0 8.0l-8.0 0z" fill-rule="nonzero"></path><path fill="#93c47d" d="m80.0 72.0l8.0 0l0 8.0l-8.0 0z" fill-rule="nonzero"></path></g></svg>

