<?xml version="1.0" standalone="yes"?>

<svg version="1.1" viewBox="0.0 0.0 120.01312335958005 120.01312335958005" fill="none" stroke="none" stroke-linecap="square" stroke-miterlimit="10" xmlns="http://www.w3.org/2000/svg" xmlns:xlink="http://www.w3.org/1999/xlink"><clipPath id="p.0"><path d="m0 0l120.01312 0l0 120.01312l-120.01312 0l0 -120.01312z" clip-rule="nonzero"></path></clipPath><g clip-path="url(#p.0)"><path fill="#000000" fill-opacity="0.0" d="m0 0l120.01312 0l0 120.01312l-120.01312 0z" fill-rule="nonzero"></path><path fill="#b6d7a8" d="m0 0l120.0 0l0 120.0l-120.0 0z" fill-rule="nonzero"></path><path fill="#783f04" d="m40.0 64.0l8.0 0l0 16.0l-8.0 0z" fill-rule="nonzero"></path><path fill="#783f04" d="m64.0 72.0l8.0 0l0 16.0l-8.0 0z" fill-rule="nonzero"></path><path fill="#783f04" d="m80.0 48.0l8.0 0l0 16.0l-8.0 0z" fill-rule="nonzero"></path><path fill="#38761d" d="m24.0 40.0l40.0 0l0 24.0l-40.0 0z" fill-rule="nonzero"></path><path fill="#38761d" d="m40.0 16.0l24.0 0l0 32.0l-24.0 0z" fill-rule="nonzero"></path><path fill="#38761d" d="m72.0 32.0l24.0 0l0 24.0l-24.0 0z" fill-rule="nonzero"></path><path fill="#6aa84f" d="m72.0 32.0l8.0 0l0 24.0l-8.0 0z" fill-rule="nonzero"></path><path fill="#38761d" d="m56.0 48.0l24.0 0l0 24.0l-24.0 0z" fill-rule="nonzero"></path><path fill="#6aa84f" d="m32.0 24.0l8.0 0l0 24.0l-8.0 0z" fill-rule="nonzero"></path><path fill="#6aa84f" d="m24.0 40.0l8.0 0l0 24.0l-8.0 0z" fill-rule="nonzero"></path><path fill="#6aa84f" d="m56.0 48.0l8.0 0l0 24.0l-8.0 0z" fill-rule="nonzero"></path></g></svg>

