<?xml version="1.0" standalone="yes"?>

<svg version="1.1" viewBox="0.0 0.0 120.01574803149606 120.01574803149606" fill="none" stroke="none" stroke-linecap="square" stroke-miterlimit="10" xmlns="http://www.w3.org/2000/svg" xmlns:xlink="http://www.w3.org/1999/xlink"><clipPath id="p.0"><path d="m0 0l120.01575 0l0 120.01575l-120.01575 0l0 -120.01575z" clip-rule="nonzero"></path></clipPath><g clip-path="url(#p.0)"><path fill="#000000" fill-opacity="0.0" d="m0 0l120.01575 0l0 120.01575l-120.01575 0z" fill-rule="nonzero"></path><path fill="#999999" d="m32.0 64.0l56.0 0l0 32.0l-56.0 0z" fill-rule="nonzero"></path><path fill="#b7b7b7" d="m24.0 56.0l72.0 0l0 8.0l-72.0 0z" fill-rule="nonzero"></path><path fill="#b7b7b7" d="m24.0 48.0l8.0 0l0 8.0l-8.0 0z" fill-rule="nonzero"></path><path fill="#b7b7b7" d="m40.0 48.0l8.0 0l0 8.0l-8.0 0z" fill-rule="nonzero"></path><path fill="#b7b7b7" d="m56.0 48.0l8.0 0l0 8.0l-8.0 0z" fill-rule="nonzero"></path><path fill="#b7b7b7" d="m72.0 48.0l8.0 0l0 8.0l-8.0 0z" fill-rule="nonzero"></path><path fill="#b7b7b7" d="m88.0 48.0l8.0 0l0 8.0l-8.0 0z" fill-rule="nonzero"></path><path fill="#efefef" d="m56.0 72.0l8.0 0l0 24.0l-8.0 0z" fill-rule="nonzero"></path><path fill="#efefef" d="m72.0 72.0l8.0 0l0 16.0l-8.0 0z" fill-rule="nonzero"></path><path fill="#efefef" d="m40.0 72.0l8.0 0l0 16.0l-8.0 0z" fill-rule="nonzero"></path><path fill="#efefef" d="m56.0 24.0l8.0 0l0 24.0l-8.0 0z" fill-rule="nonzero"></path><path fill="#cc0000" d="m56.0 16.0l24.0 0l0 8.0l-24.0 0z" fill-rule="nonzero"></path></g></svg>

