<?xml version="1.0" standalone="yes"?>

<svg version="1.1" viewBox="0.0 0.0 119.91601049868767 119.91601049868767" fill="none" stroke="none" stroke-linecap="square" stroke-miterlimit="10" xmlns="http://www.w3.org/2000/svg" xmlns:xlink="http://www.w3.org/1999/xlink"><clipPath id="p.0"><path d="m0 0l119.91601 0l0 119.91601l-119.91601 0l0 -119.91601z" clip-rule="nonzero"></path></clipPath><g clip-path="url(#p.0)"><path fill="#000000" fill-opacity="0.0" d="m0 0l119.91601 0l0 119.91601l-119.91601 0z" fill-rule="nonzero"></path><path fill="#b45f06" d="m24.0 64.0l72.0 0l0 32.0l-72.0 0z" fill-rule="nonzero"></path><path fill="#783f04" d="m24.0 40.0l72.0 0l0 24.0l-72.0 0z" fill-rule="nonzero"></path><path fill="#f1c232" d="m48.0 56.0l24.0 0l0 24.0l-24.0 0z" fill-rule="nonzero"></path><path fill="#f1c232" d="m24.0 40.0l8.0 0l0 8.0l-8.0 0z" fill-rule="nonzero"></path><path fill="#f1c232" d="m88.0 40.0l8.0 0l0 8.0l-8.0 0z" fill-rule="nonzero"></path><path fill="#f1c232" d="m88.0 88.0l8.0 0l0 8.0l-8.0 0z" fill-rule="nonzero"></path><path fill="#f1c232" d="m24.0 88.0l8.0 0l0 8.0l-8.0 0z" fill-rule="nonzero"></path><path fill="#bf9000" d="m56.0 64.0l8.0 0l0 16.0l-8.0 0z" fill-rule="nonzero"></path></g></svg>

