<?xml version="1.0" standalone="yes"?>

<svg version="1.1" viewBox="0.0 0.0 119.93963254593176 119.93963254593176" fill="none" stroke="none" stroke-linecap="square" stroke-miterlimit="10" xmlns="http://www.w3.org/2000/svg" xmlns:xlink="http://www.w3.org/1999/xlink"><clipPath id="p.0"><path d="m0 0l119.93964 0l0 119.93964l-119.93964 0l0 -119.93964z" clip-rule="nonzero"></path></clipPath><g clip-path="url(#p.0)"><path fill="#000000" fill-opacity="0.0" d="m0 0l119.93964 0l0 119.93964l-119.93964 0z" fill-rule="nonzero"></path><path fill="#6d9eeb" d="m0 0l120.0 0l0 120.0l-120.0 0z" fill-rule="nonzero"></path><path fill="#a4c2f4" d="m16.0 40.0l8.0 0l0 8.0l-8.0 0z" fill-rule="nonzero"></path><path fill="#a4c2f4" d="m24.0 32.0l8.0 0l0 8.0l-8.0 0z" fill-rule="nonzero"></path><path fill="#a4c2f4" d="m32.0 40.0l8.0 0l0 8.0l-8.0 0z" fill-rule="nonzero"></path><path fill="#a4c2f4" d="m40.0 32.0l8.0 0l0 8.0l-8.0 0z" fill-rule="nonzero"></path><path fill="#a4c2f4" d="m48.0 40.0l8.0 0l0 8.0l-8.0 0z" fill-rule="nonzero"></path><path fill="#3c78d8" d="m16.0 48.0l8.0 0l0 8.0l-8.0 0z" fill-rule="nonzero"></path><path fill="#3c78d8" d="m32.0 48.0l8.0 0l0 8.0l-8.0 0z" fill-rule="nonzero"></path><path fill="#3c78d8" d="m48.0 48.0l8.0 0l0 8.0l-8.0 0z" fill-rule="nonzero"></path><path fill="#3c78d8" d="m40.0 40.0l8.0 0l0 8.0l-8.0 0z" fill-rule="nonzero"></path><path fill="#3c78d8" d="m24.0 40.0l8.0 0l0 8.0l-8.0 0z" fill-rule="nonzero"></path><path fill="#a4c2f4" d="m64.0 72.0l8.0 0l0 8.0l-8.0 0z" fill-rule="nonzero"></path><path fill="#a4c2f4" d="m72.0 64.0l8.0 0l0 8.0l-8.0 0z" fill-rule="nonzero"></path><path fill="#a4c2f4" d="m80.0 72.0l8.0 0l0 8.0l-8.0 0z" fill-rule="nonzero"></path><path fill="#a4c2f4" d="m88.0 64.0l8.0 0l0 8.0l-8.0 0z" fill-rule="nonzero"></path><path fill="#a4c2f4" d="m96.0 72.0l8.0 0l0 8.0l-8.0 0z" fill-rule="nonzero"></path><path fill="#3c78d8" d="m64.0 80.0l8.0 0l0 8.0l-8.0 0z" fill-rule="nonzero"></path><path fill="#3c78d8" d="m80.0 80.0l8.0 0l0 8.0l-8.0 0z" fill-rule="nonzero"></path><path fill="#3c78d8" d="m96.0 80.0l8.0 0l0 8.0l-8.0 0z" fill-rule="nonzero"></path><path fill="#3c78d8" d="m88.0 72.0l8.0 0l0 8.0l-8.0 0z" fill-rule="nonzero"></path><path fill="#3c78d8" d="m72.0 72.0l8.0 0l0 8.0l-8.0 0z" fill-rule="nonzero"></path></g></svg>

