<?xml version="1.0" standalone="yes"?>

<svg version="1.1" viewBox="0.0 0.0 119.94488188976378 119.94488188976378" fill="none" stroke="none" stroke-linecap="square" stroke-miterlimit="10" xmlns="http://www.w3.org/2000/svg" xmlns:xlink="http://www.w3.org/1999/xlink"><clipPath id="p.0"><path d="m0 0l119.944885 0l0 119.944885l-119.944885 0l0 -119.944885z" clip-rule="nonzero"></path></clipPath><g clip-path="url(#p.0)"><path fill="#000000" fill-opacity="0.0" d="m0 0l119.944885 0l0 119.944885l-119.944885 0z" fill-rule="nonzero"></path><path fill="#b6d7a8" d="m0 0l120.0 0l0 120.0l-120.0 0z" fill-rule="nonzero"></path><path fill="#666666" d="m8.0 72.0l104.0 0l0 24.0l-104.0 0z" fill-rule="nonzero"></path><path fill="#666666" d="m16.0 56.0l88.0 0l0 24.0l-88.0 0z" fill-rule="nonzero"></path><path fill="#666666" d="m32.0 40.0l64.0 0l0 24.0l-64.0 0z" fill-rule="nonzero"></path><path fill="#666666" d="m40.0 32.0l48.0 0l0 24.0l-48.0 0z" fill-rule="nonzero"></path><path fill="#666666" d="m56.0 16.0l32.0 0l0 24.0l-32.0 0z" fill-rule="nonzero"></path><path fill="#666666" d="m64.0 8.0l16.0 0l0 16.0l-16.0 0z" fill-rule="nonzero"></path><path fill="#666666" d="m24.0 80.0l64.0 0l0 24.0l-64.0 0z" fill-rule="nonzero"></path><path fill="#999999" d="m56.0 16.0l8.0 0l0 16.0l-8.0 0z" fill-rule="nonzero"></path><path fill="#999999" d="m32.0 40.0l8.0 0l0 16.0l-8.0 0z" fill-rule="nonzero"></path><path fill="#999999" d="m16.0 56.0l8.0 0l0 24.0l-8.0 0z" fill-rule="nonzero"></path><path fill="#999999" d="m8.0 72.0l8.0 0l0 24.0l-8.0 0z" fill-rule="nonzero"></path><path fill="#999999" d="m40.0 32.0l8.0 0l0 8.0l-8.0 0z" fill-rule="nonzero"></path><path fill="#999999" d="m64.0 8.0l8.0 0l0 8.0l-8.0 0z" fill-rule="nonzero"></path><path fill="#999999" d="m56.0 40.0l8.0 0l0 8.0l-8.0 0z" fill-rule="nonzero"></path><path fill="#999999" d="m48.0 48.0l8.0 0l0 24.0l-8.0 0z" fill-rule="nonzero"></path></g></svg>

