<?xml version="1.0" standalone="yes"?>

<svg version="1.1" viewBox="0.0 0.0 120.22572178477691 120.22572178477691" fill="none" stroke="none" stroke-linecap="square" stroke-miterlimit="10" xmlns="http://www.w3.org/2000/svg" xmlns:xlink="http://www.w3.org/1999/xlink"><clipPath id="p.0"><path d="m0 0l120.22572 0l0 120.22572l-120.22572 0l0 -120.22572z" clip-rule="nonzero"></path></clipPath><g clip-path="url(#p.0)"><path fill="#000000" fill-opacity="0.0" d="m0 0l120.22572 0l0 120.22572l-120.22572 0z" fill-rule="nonzero"></path><path fill="#cccccc" d="m32.0 16.0l48.0 0l0 40.0l-48.0 0z" fill-rule="nonzero"></path><path fill="#cccccc" d="m24.0 24.0l64.0 0l0 40.0l-64.0 0z" fill-rule="nonzero"></path><path fill="#999999" d="m40.0 32.0l56.0 0l0 32.0l-56.0 0z" fill-rule="nonzero"></path><path fill="#999999" d="m32.0 40.0l56.0 0l0 8.0l-56.0 0z" fill-rule="nonzero"></path><path fill="#cc0000" d="m56.0 8.0l8.0 0l0 8.0l-8.0 0z" fill-rule="nonzero"></path><path fill="#cc0000" d="m40.0 0l16.0 0l0 8.0l-16.0 0z" fill-rule="nonzero"></path><path fill="#434343" d="m48.0 40.0l8.0 0l0 16.0l-8.0 0z" fill-rule="nonzero"></path><path fill="#434343" d="m64.0 40.0l8.0 0l0 16.0l-8.0 0z" fill-rule="nonzero"></path><path fill="#434343" d="m80.0 40.0l8.0 0l0 16.0l-8.0 0z" fill-rule="nonzero"></path><path fill="#999999" d="m32.0 72.0l48.0 0l0 32.0l-48.0 0z" fill-rule="nonzero"></path><path fill="#999999" d="m40.0 56.0l16.0 0l0 40.0l-16.0 0z" fill-rule="nonzero"></path><path fill="#999999" d="m32.0 96.0l8.0 0l0 24.0l-8.0 0z" fill-rule="nonzero"></path><path fill="#999999" d="m64.0 96.0l8.0 0l0 24.0l-8.0 0z" fill-rule="nonzero"></path><path fill="#434343" d="m16.0 80.0l24.0 0l0 16.0l-24.0 0z" fill-rule="nonzero"></path><path fill="#434343" d="m24.0 88.0l8.0 0l0 16.0l-8.0 0z" fill-rule="nonzero"></path><path fill="#b7b7b7" d="m48.0 80.0l32.0 0l0 16.0l-32.0 0z" fill-rule="nonzero"></path><path fill="#434343" d="m88.0 80.0l8.0 0l0 24.0l-8.0 0z" fill-rule="nonzero"></path><path fill="#434343" d="m80.0 88.0l16.0 0l0 8.0l-16.0 0z" fill-rule="nonzero"></path><path fill="#f3f3f3" d="m96.0 88.0l24.0 0l0 8.0l-24.0 0z" fill-rule="nonzero"></path><path fill="#f3f3f3" d="m56.0 80.0l24.0 0l0 16.0l-24.0 0z" fill-rule="nonzero"></path><path fill="#f3f3f3" d="m32.0 48.0l8.0 0l0 16.0l-8.0 0z" fill-rule="nonzero"></path><path fill="#f3f3f3" d="m32.0 32.0l8.0 0l0 8.0l-8.0 0z" fill-rule="nonzero"></path><path fill="#f3f3f3" d="m40.0 24.0l32.0 0l0 8.0l-32.0 0z" fill-rule="nonzero"></path></g></svg>

