<?xml version="1.0" standalone="yes"?>

<svg version="1.1" viewBox="0.0 0.0 120.01574803149606 120.01574803149606" fill="none" stroke="none" stroke-linecap="square" stroke-miterlimit="10" xmlns="http://www.w3.org/2000/svg" xmlns:xlink="http://www.w3.org/1999/xlink"><clipPath id="p.0"><path d="m0 0l120.01575 0l0 120.01575l-120.01575 0l0 -120.01575z" clip-rule="nonzero"></path></clipPath><g clip-path="url(#p.0)"><path fill="#000000" fill-opacity="0.0" d="m0 0l120.01575 0l0 120.01575l-120.01575 0z" fill-rule="nonzero"></path><path fill="#666666" d="m32.0 48.0l56.0 0l0 32.0l-56.0 0z" fill-rule="nonzero"></path><path fill="#666666" d="m24.0 40.0l72.0 0l0 8.0l-72.0 0z" fill-rule="nonzero"></path><path fill="#666666" d="m24.0 32.0l8.0 0l0 8.0l-8.0 0z" fill-rule="nonzero"></path><path fill="#666666" d="m40.0 32.0l8.0 0l0 8.0l-8.0 0z" fill-rule="nonzero"></path><path fill="#666666" d="m56.0 32.0l8.0 0l0 8.0l-8.0 0z" fill-rule="nonzero"></path><path fill="#666666" d="m72.0 32.0l8.0 0l0 8.0l-8.0 0z" fill-rule="nonzero"></path><path fill="#666666" d="m88.0 32.0l8.0 0l0 8.0l-8.0 0z" fill-rule="nonzero"></path><path fill="#fff2cc" d="m56.0 56.0l8.0 0l0 16.0l-8.0 0z" fill-rule="nonzero"></path><path fill="#fff2cc" d="m72.0 56.0l8.0 0l0 16.0l-8.0 0z" fill-rule="nonzero"></path><path fill="#fff2cc" d="m40.0 56.0l8.0 0l0 16.0l-8.0 0z" fill-rule="nonzero"></path><path fill="#efefef" d="m56.0 8.0l8.0 0l0 24.0l-8.0 0z" fill-rule="nonzero"></path><path fill="#cc0000" d="m56.0 0l24.0 0l0 8.0l-24.0 0z" fill-rule="nonzero"></path><path fill="#434343" d="m16.0 80.0l88.0 0l0 40.0l-88.0 0z" fill-rule="nonzero"></path><path fill="#434343" d="m8.0 72.0l8.0 0l0 16.0l-8.0 0z" fill-rule="nonzero"></path><path fill="#434343" d="m104.0 72.0l8.0 0l0 16.0l-8.0 0z" fill-rule="nonzero"></path><path fill="#fff2cc" d="m48.0 104.0l24.0 0l0 16.0l-24.0 0z" fill-rule="nonzero"></path><path fill="#fff2cc" d="m56.0 96.0l8.0 0l0 16.0l-8.0 0z" fill-rule="nonzero"></path><path fill="#fff2cc" d="m80.0 96.0l8.0 0l0 16.0l-8.0 0z" fill-rule="nonzero"></path><path fill="#fff2cc" d="m32.0 96.0l8.0 0l0 16.0l-8.0 0z" fill-rule="nonzero"></path><path fill="#434343" d="m24.0 72.0l8.0 0l0 16.0l-8.0 0z" fill-rule="nonzero"></path><path fill="#434343" d="m40.0 72.0l8.0 0l0 16.0l-8.0 0z" fill-rule="nonzero"></path><path fill="#434343" d="m56.0 72.0l8.0 0l0 16.0l-8.0 0z" fill-rule="nonzero"></path><path fill="#434343" d="m72.0 72.0l8.0 0l0 16.0l-8.0 0z" fill-rule="nonzero"></path><path fill="#434343" d="m88.0 72.0l8.0 0l0 16.0l-8.0 0z" fill-rule="nonzero"></path><path fill="#3d85c6" d="m56.0 0l24.0 0l0 8.0l-24.0 0z" fill-rule="nonzero"></path></g></svg>

